<mxfile host="app.diagrams.net" modified="2023-10-17T06:50:34.401Z" agent="Mozilla/5.0 (Macintosh; Intel Mac OS X 10_15_7) AppleWebKit/537.36 (KHTML, like Gecko) Chrome/117.0.0.0 Safari/537.36" version="21.6.6" etag="8ev_WMJR0PfbwnCISFhN" type="github">
  <diagram name="第 1 页" id="KrkYhfTj4iuYodY4POBy">
    <mxGraphModel>
      <root>
        <mxCell id="0" />
        <mxCell id="1" parent="0" />
      </root>
    </mxGraphModel>
  </diagram>
</mxfile>
